# xmcd
#
# Track frame offsets: 
#        150
#        15915
#        32750
#        51061
#        66951
#        84380
#        102739
#        119706
#        138114
#        155205
#        173573
#
# Disc length: 2562 seconds
#
# Revision: 1
# Processed by: cddbd v1.5.1PL0 Copyright (c) Steve Scherf et al.
# Submitted via: ExactAudioCopy v0.95a5
#
DISCID=8f0a000b
DTITLE=Higher Ground - A Thousand Pieces
DYEAR=2004
DGENRE=Hard Rock
TTITLE0=Inside Me
TTITLE1=Speechless
TTITLE2=Feel Alive
TTITLE3=Goodbye
TTITLE4=She's Gone
TTITLE5=Falling Apart
TTITLE6=Cry
TTITLE7=Another Day
TTITLE8=She Plays
TTITLE9=Believe
TTITLE10=The Genius
EXTD=YEAR: 2004
EXTT0=
EXTT1=
EXTT2=
EXTT3=
EXTT4=
EXTT5=
EXTT6=
EXTT7=
EXTT8=
EXTT9=
EXTT10=
PLAYORDER=
